<svg width="20" height="19" viewBox="0 0 20 19" fill="none" xmlns="http://www.w3.org/2000/svg">
<g clip-path="url(#clip0_11471_20)">
<path d="M12.2632 17.2358V14.2376C12.377 13.2987 12.0833 12.3564 11.4457 11.6143C13.8983 11.6143 16.351 10.1152 16.351 7.49184C16.4164 6.55493 16.1302 5.633 15.5334 4.86848C15.7623 4.00652 15.7623 3.10708 15.5334 2.24512C15.5334 2.24512 14.7159 2.24512 13.0808 3.36942C10.9224 2.99465 8.69869 2.99465 6.54036 3.36942C4.90526 2.24512 4.08771 2.24512 4.08771 2.24512C3.84244 3.10708 3.84244 4.00652 4.08771 4.86848C3.49242 5.62992 3.2035 6.55702 3.27015 7.49184C3.27015 10.1152 5.72281 11.6143 8.17546 11.6143C7.85662 11.9815 7.61953 12.4013 7.48054 12.851C7.34156 13.3007 7.30068 13.7729 7.35791 14.2376V17.2358" stroke="#4B5563" stroke-width="2" stroke-linecap="round" stroke-linejoin="round"/>
<path d="M7.35787 14.2378C3.67071 15.7369 3.27011 12.7388 1.63501 12.7388" stroke="#4B5563" stroke-width="2" stroke-linecap="round" stroke-linejoin="round"/>
</g>
<defs>
<clipPath id="clip0_11471_20">
<rect width="19.6212" height="17.9888" fill="white" transform="translate(0 0.746094)"/>
</clipPath>
</defs>
</svg>
