<svg width="20" height="18" viewBox="0 0 20 18" fill="none" xmlns="http://www.w3.org/2000/svg">
<g clip-path="url(#clip0_11466_276)">
<path d="M16.3511 7.49528C16.3511 11.9925 9.81068 16.4897 9.81068 16.4897C9.81068 16.4897 3.27026 11.9925 3.27026 7.49528C3.27026 5.90498 3.95934 4.3798 5.18591 3.25529C6.41247 2.13077 8.07605 1.49902 9.81068 1.49902C11.5453 1.49902 13.2089 2.13077 14.4354 3.25529C15.662 4.3798 16.3511 5.90498 16.3511 7.49528Z" stroke="#4B5563" stroke-width="2" stroke-linecap="round" stroke-linejoin="round"/>
<path d="M9.81056 9.74378C11.1651 9.74378 12.2632 8.73705 12.2632 7.49518C12.2632 6.25331 11.1651 5.24658 9.81056 5.24658C8.456 5.24658 7.35791 6.25331 7.35791 7.49518C7.35791 8.73705 8.456 9.74378 9.81056 9.74378Z" stroke="#4B5563" stroke-width="2" stroke-linecap="round" stroke-linejoin="round"/>
</g>
<defs>
<clipPath id="clip0_11466_276">
<rect width="19.6212" height="17.9888" fill="white"/>
</clipPath>
</defs>
</svg>
