<svg width="20" height="18" viewBox="0 0 20 18" fill="none" xmlns="http://www.w3.org/2000/svg">
<g clip-path="url(#clip0_11473_25)">
<path d="M17.8129 12.9081V15.0657C17.8138 15.266 17.7682 15.4642 17.6789 15.6477C17.5896 15.8313 17.4586 15.996 17.2943 16.1314C17.1301 16.2668 16.9361 16.3699 16.725 16.4341C16.5138 16.4982 16.29 16.5221 16.068 16.504C13.605 16.2636 11.2392 15.5073 9.1605 14.2961C7.22657 13.1919 5.58694 11.7187 4.35804 9.981C3.00533 8.10478 2.16351 5.96864 1.90078 3.74563C1.88078 3.54676 1.90709 3.34631 1.97802 3.15707C2.04896 2.96782 2.16297 2.79392 2.31281 2.64644C2.46264 2.49896 2.64501 2.38113 2.8483 2.30044C3.05159 2.21976 3.27136 2.17799 3.4936 2.1778H5.89483C6.28327 2.17437 6.65985 2.29797 6.95438 2.52556C7.2489 2.75315 7.44128 3.0692 7.49564 3.41481C7.59699 4.10528 7.78495 4.78323 8.05593 5.43573C8.16362 5.69314 8.18693 5.9729 8.12309 6.24185C8.05925 6.5108 7.91095 6.75767 7.69575 6.95321L6.67923 7.86658C7.81865 9.6671 9.47782 11.1579 11.4817 12.1817L12.4982 11.2683C12.7158 11.075 12.9906 10.9417 13.2899 10.8844C13.5892 10.827 13.9006 10.8479 14.1871 10.9447C14.9133 11.1882 15.6678 11.3571 16.4362 11.4481C16.825 11.4974 17.1801 11.6734 17.434 11.9426C17.6878 12.2118 17.8227 12.5554 17.8129 12.9081Z" stroke="#4B5563" stroke-width="2" stroke-linecap="round" stroke-linejoin="round"/>
</g>
<defs>
<clipPath id="clip0_11473_25">
<rect width="19.2098" height="17.2605" fill="white" transform="translate(0.203857 0.739258)"/>
</clipPath>
</defs>
</svg>
