<svg width="50" height="22" viewBox="0 0 50 22" fill="none" xmlns="http://www.w3.org/2000/svg">
<g clip-path="url(#clip0_11476_82)">
<path d="M25.814 7.0977L28.1928 6.92026C28.2471 7.36908 28.3466 7.70309 28.5094 7.94316C28.7717 8.31891 29.1335 8.50679 29.6129 8.50679C29.9656 8.50679 30.246 8.41285 30.436 8.21454C30.6169 8.05797 30.7254 7.80747 30.7254 7.54653C30.7254 7.29602 30.6259 7.05595 30.4541 6.89939C30.2732 6.71151 29.848 6.52363 29.1787 6.35663C28.0843 6.07481 27.2974 5.69905 26.8361 5.21892C26.3748 4.7701 26.1125 4.11253 26.1306 3.4132C26.1306 2.93307 26.2572 2.45293 26.4924 2.0563C26.7638 1.60748 27.1346 1.2526 27.5778 1.05428C28.0572 0.814217 28.7265 0.688965 29.5677 0.688965C30.5988 0.688965 31.3857 0.908156 31.9284 1.35698C32.4711 1.79536 32.7967 2.50512 32.8962 3.47583L30.5445 3.63239C30.4812 3.21488 30.3546 2.91219 30.1465 2.71388C29.9385 2.51556 29.6672 2.42162 29.3144 2.42162C29.025 2.42162 28.8079 2.49468 28.6632 2.63037C28.5275 2.75563 28.437 2.94351 28.4461 3.15226C28.4461 3.30882 28.5185 3.45495 28.627 3.54889C28.7446 3.67414 29.025 3.78896 29.4682 3.89333C30.5626 4.16471 31.3405 4.43609 31.8198 4.71791C32.2992 4.99973 32.6429 5.34417 32.8509 5.75124C33.068 6.16875 33.1766 6.64888 33.1675 7.13946C33.1675 7.72397 33.0228 8.30848 32.7334 8.79905C32.4349 9.31049 32.0188 9.70713 31.5304 9.94719C31.0148 10.2081 30.3636 10.3438 29.5857 10.3438C28.2109 10.3438 27.2612 10.0411 26.7276 9.42531C26.1939 8.80949 25.8774 8.0371 25.814 7.0977ZM0.569826 10.1873V0.855968H4.73951C5.50832 0.855968 6.10528 0.929032 6.5123 1.0856C6.91028 1.23172 7.26303 1.53442 7.49819 1.94149C7.76049 2.39031 7.88712 2.91219 7.87808 3.45495C7.90521 4.37347 7.49819 5.25023 6.80174 5.70949C6.53039 5.88693 6.23191 6.01219 5.92439 6.07481C6.15051 6.14788 6.37663 6.27313 6.57562 6.41926C6.72938 6.56538 6.85601 6.73239 6.97359 6.90983C7.10926 7.08727 7.22685 7.28558 7.32634 7.49434L8.53835 10.1977H5.69826L4.35962 7.32733C4.18777 6.96201 4.04305 6.72195 3.90738 6.60713C3.72648 6.46101 3.50941 6.38794 3.29233 6.38794H3.07525V10.1768H0.569826V10.1873ZM3.07525 4.63441H4.1335C4.35962 4.61354 4.5767 4.57178 4.79378 4.50916C4.95658 4.47785 5.1013 4.37347 5.2008 4.2169C5.44501 3.84115 5.40883 3.30882 5.11035 2.98526C4.94754 2.82869 4.63097 2.74519 4.17873 2.74519H3.07525V4.63441ZM0 18.1825L2.3788 18.0051C2.43307 18.4539 2.53256 18.7879 2.69537 19.028C2.94863 19.4037 3.31946 19.6021 3.79884 19.6021C4.15159 19.6021 4.43198 19.5081 4.62192 19.3098C4.80282 19.1428 4.91136 18.9027 4.91136 18.6418C4.91136 18.3913 4.81187 18.1512 4.64001 17.9946C4.45912 17.8068 4.03401 17.6189 3.35564 17.4519C2.26122 17.1701 1.47431 16.7943 1.01302 16.3142C0.551737 15.8654 0.289436 15.2078 0.307525 14.5085C0.307525 14.0283 0.434153 13.5482 0.66932 13.1516C0.940666 12.7027 1.31151 12.3479 1.7547 12.1495C2.23408 11.9095 2.9034 11.7842 3.74457 11.7842C4.77569 11.7842 5.56259 12.0034 6.10528 12.4522C6.64797 12.9011 6.96454 13.6004 7.06404 14.5711L4.71237 14.7277C4.64906 14.3101 4.52243 14.0075 4.3144 13.8091C4.11541 13.6108 3.83502 13.5169 3.48227 13.5273C3.19284 13.5273 2.97576 13.6004 2.83104 13.7465C2.68632 13.8718 2.60492 14.0596 2.61397 14.2684C2.61397 14.425 2.68632 14.5711 2.79486 14.665C2.91245 14.7903 3.19284 14.9051 3.63604 15.0095C4.73046 15.2809 5.50832 15.5522 5.9877 15.834C6.46708 16.1159 6.81078 16.4603 7.01881 16.8674C7.23589 17.2849 7.34443 17.765 7.34443 18.2452C7.34443 18.8297 7.19067 19.4037 6.91028 19.8943C6.6118 20.4058 6.19573 20.8024 5.70731 21.0425C5.19175 21.3034 4.54052 21.4391 3.76266 21.4391C2.38784 21.4391 1.43813 21.1364 0.904486 20.5206C0.370839 19.8943 0.0723589 19.1219 0 18.1825Z" fill="black"/>
<path d="M12.0298 17.4518L14.2186 18.2138C14.1011 18.8505 13.8568 19.4559 13.5222 19.9882C13.2147 20.4579 12.8076 20.8232 12.3464 21.0633C11.876 21.3034 11.2791 21.4286 10.5555 21.4286C9.67812 21.4286 8.95453 21.2825 8.40279 20.9902C7.84201 20.698 7.36263 20.1761 6.95562 19.435C6.5486 18.6939 6.34961 17.7441 6.34961 16.5855C6.34961 15.0407 6.70236 13.8508 7.4169 13.0263C8.13145 12.2017 9.13543 11.7842 10.4379 11.7842C11.46 11.7842 12.2559 12.0242 12.8438 12.4939C13.4227 12.9741 13.8568 13.7047 14.1463 14.6859L11.9393 15.2495C11.8851 15.0303 11.8037 14.8111 11.6951 14.6232C11.5595 14.404 11.3876 14.237 11.1796 14.1118C10.9715 13.9865 10.7364 13.9343 10.5012 13.9343C9.93138 13.9343 9.49722 14.1953 9.19874 14.7276C8.97262 15.1138 8.85504 15.7296 8.85504 16.5646C8.85504 17.598 8.99071 18.3077 9.26206 18.6939C9.5334 19.0801 9.91329 19.268 10.4108 19.268C10.8901 19.268 11.2519 19.1114 11.4961 18.8087C11.7403 18.4852 11.9212 18.0364 12.0298 17.4518ZM17.1401 11.9407H19.6365V15.2077H22.3681V11.9407H24.8825V21.272H22.3681V17.4936H19.6365V21.272H17.1401V11.9407Z" fill="black"/>
<path d="M24.5388 16.6066C24.5388 15.0827 24.9097 13.8928 25.6423 13.0473C26.3749 12.2019 27.406 11.7739 28.7175 11.7739C30.0652 11.7739 31.0963 12.1914 31.829 13.0264C32.5616 13.8615 32.9234 15.0305 32.9234 16.5335C32.9234 17.6295 32.7606 18.5167 32.444 19.216C32.1365 19.9049 31.6571 20.4685 31.0692 20.8443C30.4632 21.2305 29.7125 21.4288 28.817 21.4288C27.9035 21.4288 27.1528 21.2618 26.5558 20.9278C25.9408 20.5729 25.4343 20.0197 25.0996 19.3412C24.7288 18.6106 24.5388 17.7025 24.5388 16.6066ZM27.0352 16.617C27.0352 17.5564 27.189 18.2349 27.4874 18.6524C27.7859 19.0594 28.202 19.2682 28.7266 19.2682C29.2602 19.2682 29.6763 19.0699 29.9748 18.6628C30.2733 18.2557 30.418 17.5355 30.418 16.4918C30.418 15.615 30.2642 14.9679 29.9567 14.5712C29.6492 14.1642 29.2331 13.9658 28.7085 13.9658C28.2472 13.945 27.804 14.1746 27.4965 14.5817C27.189 14.9887 27.0352 15.6672 27.0352 16.617ZM35.4831 16.6066C35.4831 15.0827 35.8539 13.8928 36.5866 13.0473C37.3192 12.2019 38.3503 11.7739 39.6618 11.7739C41.0095 11.7739 42.0497 12.1914 42.7733 13.0264C43.4969 13.8615 43.8677 15.0305 43.8677 16.5335C43.8677 17.6295 43.7049 18.5167 43.3883 19.216C43.0808 19.9049 42.6014 20.4685 42.0135 20.8443C41.4075 21.2305 40.6568 21.4288 39.7613 21.4288C38.8478 21.4288 38.0971 21.2618 37.5001 20.9278C36.8851 20.5729 36.3785 20.0197 36.0439 19.3412C35.673 18.6106 35.4831 17.7025 35.4831 16.6066ZM37.9795 16.617C37.9795 17.5564 38.1332 18.2349 38.4317 18.6524C38.7302 19.0594 39.1463 19.2682 39.6709 19.2682C40.2045 19.2682 40.6206 19.0699 40.9191 18.6628C41.2175 18.2557 41.3623 17.5355 41.3623 16.4918C41.3623 15.615 41.2085 14.9679 40.901 14.5712C40.5935 14.1642 40.1774 13.9658 39.6528 13.9658C39.1915 13.945 38.7393 14.1746 38.4408 14.5817C38.1332 14.9887 37.9795 15.6672 37.9795 16.617Z" fill="black"/>
<path d="M43.6052 11.9409H46.1016V18.9759H50V21.2722H43.5962V11.9409H43.6052Z" fill="black"/>
<path d="M40.8538 11.402C43.3671 9.21639 44.1421 5.51137 42.5848 3.12663C41.0276 0.741897 37.7277 0.580509 35.2143 2.76616C32.701 4.95181 31.926 8.65684 33.4833 11.0416C35.0406 13.4263 38.3405 13.5877 40.8538 11.402Z" fill="white"/>
<mask id="mask0_11476_82" style="mask-type:luminance" maskUnits="userSpaceOnUse" x="32" y="1" width="12" height="12">
<path d="M40.8538 11.4025C43.3671 9.21688 44.1421 5.51185 42.5848 3.12712C41.0276 0.742385 37.7277 0.580997 35.2143 2.76665C32.701 4.9523 31.926 8.65733 33.4833 11.0421C35.0406 13.4268 38.3405 13.5882 40.8538 11.4025Z" fill="white"/>
</mask>
<g mask="url(#mask0_11476_82)">
<path d="M27.0735 5.90186L40.0613 -5.39265L49.0484 8.36975L36.0606 19.6643L27.0735 5.90186Z" fill="white"/>
<mask id="mask1_11476_82" style="mask-type:luminance" maskUnits="userSpaceOnUse" x="27" y="-6" width="23" height="26">
<path d="M27.0735 5.90186L40.0613 -5.39265L49.0484 8.36975L36.0606 19.6643L27.0735 5.90186Z" fill="white"/>
</mask>
<g mask="url(#mask1_11476_82)">
<path d="M40.8538 11.4025C43.3671 9.21688 44.1421 5.51185 42.5848 3.12712C41.0276 0.742385 37.7277 0.580997 35.2143 2.76665C32.701 4.9523 31.926 8.65733 33.4833 11.0421C35.0406 13.4268 38.3405 13.5882 40.8538 11.4025Z" fill="white"/>
<mask id="mask2_11476_82" style="mask-type:luminance" maskUnits="userSpaceOnUse" x="32" y="1" width="12" height="12">
<path d="M40.8538 11.4025C43.3671 9.21688 44.1421 5.51185 42.5848 3.12712C41.0276 0.742385 37.7277 0.580997 35.2143 2.76665C32.701 4.9523 31.926 8.65733 33.4833 11.0421C35.0406 13.4268 38.3405 13.5882 40.8538 11.4025Z" fill="white"/>
</mask>
<g mask="url(#mask2_11476_82)">
<path d="M30.6902 6.8208L39.7846 -1.08768L45.4294 7.55665L36.3349 15.4651L30.6902 6.8208Z" fill="white"/>
<mask id="mask3_11476_82" style="mask-type:luminance" maskUnits="userSpaceOnUse" x="32" y="-1" width="13" height="16">
<path d="M32.0303 12.1523L35.3377 -0.660614L44.1851 2.14176L40.8777 14.9547L32.0303 12.1523Z" fill="white"/>
</mask>
<g mask="url(#mask3_11476_82)">
<path d="M40.7856 11.3215C43.3364 9.09105 44.1723 5.38602 42.6526 3.04606C41.1328 0.706088 37.8329 0.617282 35.2821 2.8477C32.7312 5.07812 31.8953 8.78315 33.4151 11.1231C34.9348 13.4631 38.2347 13.5519 40.7856 11.3215Z" fill="white" stroke="black" stroke-width="4" stroke-miterlimit="10"/>
</g>
<mask id="mask4_11476_82" style="mask-type:luminance" maskUnits="userSpaceOnUse" x="31" y="-1" width="14" height="16">
<path d="M31.9861 12.1929L35.2938 -0.620044L44.1411 2.18249L40.8334 14.9954L31.9861 12.1929Z" fill="white"/>
</mask>
<g mask="url(#mask4_11476_82)">
<path d="M30.6902 6.98291L39.9206 -1.08772L45.4294 7.39448L36.1989 15.4651L30.6902 6.98291Z" stroke="black" stroke-width="4" stroke-miterlimit="10"/>
</g>
<path d="M40.8538 11.4025C43.3671 9.21688 44.1421 5.51185 42.5848 3.12712C41.0276 0.742385 37.7277 0.580997 35.2143 2.76665C32.701 4.9523 31.926 8.65733 33.4833 11.0421C35.0406 13.4268 38.3405 13.5882 40.8538 11.4025Z" stroke="black" stroke-width="4" stroke-miterlimit="10"/>
<path d="M30.6902 6.8208L39.7846 -1.08768L45.4294 7.55665L36.3349 15.4651L30.6902 6.8208Z" fill="white"/>
<mask id="mask5_11476_82" style="mask-type:luminance" maskUnits="userSpaceOnUse" x="32" y="-1" width="13" height="16">
<path d="M32.0303 12.1523L35.3377 -0.660614L44.1851 2.14176L40.8777 14.9547L32.0303 12.1523Z" fill="white"/>
</mask>
<g mask="url(#mask5_11476_82)">
<path d="M40.7856 11.3215C43.3364 9.09105 44.1723 5.38602 42.6526 3.04606C41.1328 0.706088 37.8329 0.617282 35.2821 2.8477C32.7312 5.07812 31.8953 8.78315 33.4151 11.1231C34.9348 13.4631 38.2347 13.5519 40.7856 11.3215Z" fill="white" stroke="black" stroke-width="4" stroke-miterlimit="10"/>
</g>
<mask id="mask6_11476_82" style="mask-type:luminance" maskUnits="userSpaceOnUse" x="31" y="-1" width="14" height="16">
<path d="M31.9861 12.1929L35.2938 -0.620044L44.1411 2.18249L40.8334 14.9954L31.9861 12.1929Z" fill="white"/>
</mask>
<g mask="url(#mask6_11476_82)">
<path d="M30.6902 6.98291L39.9206 -1.08772L45.4294 7.39448L36.1989 15.4651L30.6902 6.98291Z" stroke="black" stroke-width="4" stroke-miterlimit="10"/>
</g>
<path d="M27.0735 5.90186L40.0613 -5.39265L49.0484 8.36976L36.0606 19.6643L27.0735 5.90186Z" stroke="black" stroke-width="4" stroke-miterlimit="10"/>
</g>
<path d="M40.8538 11.4025C43.3671 9.21688 44.1421 5.51185 42.5848 3.12712C41.0276 0.742385 37.7277 0.580997 35.2143 2.76665C32.701 4.9523 31.926 8.65733 33.4833 11.0421C35.0406 13.4268 38.3405 13.5882 40.8538 11.4025Z" stroke="black" stroke-width="4" stroke-miterlimit="10"/>
<path d="M35.4921 6.39849L36.3965 5.66785L37.5091 7.49445C37.699 7.7867 37.8437 8.09983 37.9523 8.44428C38.0156 8.70522 37.9975 8.98704 37.907 9.23754C37.7895 9.55067 37.5995 9.81161 37.3463 9.99949C37.0478 10.2396 36.7945 10.3752 36.5774 10.417C36.3694 10.4588 36.1523 10.417 35.9533 10.3126C35.7363 10.1874 35.5463 10.0099 35.4016 9.7803L36.1795 8.94529C36.2428 9.0601 36.3242 9.16448 36.4146 9.24798C36.478 9.30017 36.5503 9.33148 36.6317 9.33148C36.695 9.33148 36.7583 9.30017 36.8036 9.25842C36.894 9.19579 36.9573 9.07054 36.9483 8.94529C36.9211 8.76784 36.8578 8.5904 36.7583 8.45471L35.4921 6.39849ZM38.2055 7.55707L39.0286 6.80556C39.1191 6.93081 39.2366 7.02475 39.3633 7.07694C39.5442 7.13957 39.7341 7.09781 39.8879 6.96212C39.9964 6.87862 40.0869 6.76381 40.123 6.61768C40.1773 6.4298 40.0869 6.22105 39.924 6.15842C39.8969 6.14799 39.8698 6.13755 39.8426 6.13755C39.7341 6.12711 39.5442 6.1793 39.2638 6.31499C38.8025 6.53418 38.4407 6.61768 38.1693 6.58637C37.907 6.55505 37.6628 6.39849 37.5181 6.13755C37.4096 5.96011 37.3553 5.75135 37.3463 5.5426C37.3463 5.30253 37.4005 5.06247 37.5181 4.86415C37.69 4.58233 37.898 4.34227 38.1512 4.15439C38.5311 3.85169 38.8658 3.70557 39.1552 3.70557C39.4447 3.70557 39.716 3.86213 39.9693 4.1857L39.1552 4.92678C38.9924 4.68671 38.6849 4.63452 38.4769 4.8224L38.4497 4.85371C38.3593 4.91634 38.296 5.01028 38.2598 5.12509C38.2327 5.20859 38.2507 5.30253 38.296 5.3756C38.3321 5.42778 38.3864 5.46954 38.4497 5.46954C38.5221 5.47997 38.6487 5.43822 38.8296 5.34428C39.2819 5.12509 39.6256 4.99984 39.8607 4.95809C40.0597 4.91634 40.2677 4.93721 40.4577 5.03115C40.6295 5.11465 40.7743 5.26078 40.8738 5.43822C41.0004 5.64698 41.0727 5.89748 41.0818 6.15842C41.0908 6.4298 41.0275 6.69075 40.9009 6.92037C40.7381 7.20219 40.53 7.44226 40.2858 7.63014C39.7884 8.02677 39.3814 8.19377 39.0557 8.13115C38.703 8.06852 38.4136 7.85977 38.2055 7.55707Z" fill="black"/>
</g>
</g>
</g>
<defs>
<clipPath id="clip0_11476_82">
<rect width="50" height="21.4286" fill="white"/>
</clipPath>
</defs>
</svg>
